<?xml version="1.0" encoding="UTF-8" standalone="no"?>
<svg width="366px" height="366px" viewBox="0 0 366 366" version="1.1" xmlns="http://www.w3.org/2000/svg" xmlns:xlink="http://www.w3.org/1999/xlink">
    <!-- Generator: Sketch 3.8.3 (29802) - http://www.bohemiancoding.com/sketch -->
    <title>lightwtf</title>
    <desc>Created with Sketch.</desc>
    <defs></defs>
    <g id="Aperture" stroke="none" stroke-width="1" fill="none" fill-rule="evenodd">
        <g id="lightwtf" transform="translate(183.500000, 182.500000) scale(1, -1) translate(-183.500000, -182.500000) translate(-12.000000, -13.000000)" fill="#16C98D">
            <path d="M176.963058,376.280759 C173.650248,375.814253 171,375.067844 171,374.694639 C171,374.321434 174.691417,367.790349 179.140047,360.13965 C183.588678,352.488951 188.415915,344.371746 189.741039,342.039216 C191.728725,338.49377 233.564781,267.118347 259.026092,223.733285 C264.421239,214.683068 266.598229,211.697429 267.260791,212.53714 C267.828701,213.190249 275.590141,226.345719 284.582054,241.740418 C293.479315,257.135117 302.471227,272.436515 304.458913,275.795359 C306.446599,279.154202 312.788264,290.070444 318.562018,300.053673 C328.311144,316.754589 329.068358,318.434011 327.932538,320.486637 C326.134155,323.845481 309.191499,338.960276 299.915631,345.491361 C269.816387,366.670735 234.700602,377.680277 197.502479,377.400374 C189.457084,377.307073 180.181216,376.840567 176.963058,376.280759 L176.963058,376.280759 Z" id="Shape"></path>
            <path d="M145.228382,371.897913 C95.292301,359.136818 53.2764494,325.424673 30.8679952,279.903752 C27.8737621,274.094597 25.2658816,268.094978 24.879529,266.666497 L24.3,264 L121.274517,264 C174.687772,264 218.538799,264.285696 218.925152,264.571392 C219.214916,264.857088 218.635387,266.476033 217.669505,268.094978 C206.36869,287.427084 177.778594,336.566823 168.312953,352.756271 C161.744958,364.088885 155.85308,373.61209 155.370139,373.802554 C154.79061,374.08825 150.250967,373.13593 145.228382,371.897913 L145.228382,371.897913 Z" id="Shape"></path>
            <path d="M276.717069,202.752446 C275.848609,201.178528 267.357003,186.127937 257.996937,169.503428 C248.636871,152.878919 241.11022,138.910397 241.399707,138.516917 C241.592698,138.123438 244.101581,137.926698 246.996447,138.025068 C249.794817,138.123438 278.453988,138.221808 310.586998,138.320178 L369.159781,138.320178 L371.668665,147.960425 C376.107459,164.191455 377.16891,172.552894 377.747883,192.03013 C378.133865,206.785611 377.940874,212.982913 376.589937,221.541093 C372.344134,249.871617 363.466546,273.480387 348.413244,296.695678 C337.412754,313.516927 340.211124,314.992475 322.455947,283.710854 C308.464096,259.020015 280.57689,209.736708 276.717069,202.752446 Z" id="Shape"></path>
            <path d="M17.7857856,236.143535 C8.26915027,199.088383 11.6336173,158.544577 27.014038,124.600926 C33.8390997,109.609147 49.604031,85 52.2956046,85 C52.8723704,85 60.9470913,98.0117329 70.1753437,113.852103 C79.4035962,129.786762 88.0550828,144.495677 89.304742,146.664299 C90.5544012,148.738634 92.4769538,152.038711 93.5343577,153.830181 C94.495634,155.621652 104.108397,172.02775 114.874691,190.13103 C125.544858,208.328599 137.65694,228.789077 141.6943,235.577808 C145.731661,242.460826 149,248.495253 149,249.06098 C149,249.720995 128.236432,250.003859 85.5557645,250.003859 L22.1115289,250.003859 L21.054125,247.458085 C20.4773592,245.949479 18.9393172,240.952219 17.7857856,236.143535 Z" id="Shape"></path>
            <path d="M63.04965,75.6883791 L61,72.1341344 L68.8081904,64.3532204 C106.189902,27.1777422 156.064718,8.73409417 209.355617,12.4804602 C216.773398,13.0568242 223.312757,13.8253095 223.800769,14.3056129 C224.288781,14.7859162 219.018253,24.6801649 211.795677,37.0719909 C204.670703,49.175635 187.980696,77.7056531 174.706772,100.375971 C161.432849,123.142349 146.499685,148.598425 141.521963,157.051764 C136.544242,165.505103 131.176111,174.726927 129.614473,177.512686 C128.052835,180.202385 126.393594,182.507841 126.100787,182.507841 C125.710378,182.507841 119.268621,171.941167 111.85084,159.165099 C76.9091879,99.6074852 64.9040952,78.9544418 63.04965,75.6883791 Z" id="Shape"></path>
            <path d="M239.452026,15.5 C242.170059,15.5 258.759437,20.3717671 267.100988,23.6196118 C288.37663,31.9302733 307.402866,44.3485032 324.64832,61.3519256 C333.927125,70.4267858 341.9875,80.3613697 349.579249,91.8243511 C353.984338,98.6066151 364.10667,118.571308 365.043923,122.774401 L365.7,125.353572 L270.85,125.353572 L176,125.353572 L178.249407,121.341528 C215.270899,55.52491 238.514773,15.5 239.452026,15.5 Z" id="Shape"></path>
        </g>
    </g>
</svg>