
<svg width="392px" height="392px" viewBox="8 6 392 392" version="1.1" xmlns="http://www.w3.org/2000/svg" xmlns:xlink="http://www.w3.org/1999/xlink">
    <!-- Generator: Sketch 3.8.3 (29802) - http://www.bohemiancoding.com/sketch -->
    <desc>Created with Sketch.</desc>
    <defs></defs>
    <g id="Group" stroke="none" stroke-width="1" fill="none" fill-rule="evenodd" transform="translate(204.000000, 202.000000) scale(1, -1) translate(-204.000000, -202.000000) translate(8.500000, 6.500000)">
        <path d="M171.8,376.2 C168.3,375.7 165.5,374.9 165.5,374.5 C165.5,374.1 169.4,367.1 174.1,358.9 C178.8,350.7 183.9,342 185.3,339.5 C187.4,335.7 231.6,259.2 258.5,212.7 C264.2,203 266.5,199.8 267.2,200.7 C267.8,201.4 276,215.5 285.5,232 C294.9,248.5 304.4,264.9 306.5,268.5 C308.6,272.1 315.3,283.8 321.4,294.5 C331.7,312.4 332.5,314.2 331.3,316.4 C329.4,320 311.5,336.2 301.7,343.2 C269.9,365.9 232.8,377.7 193.5,377.4 C185,377.3 175.2,376.8 171.8,376.2 L171.8,376.2 Z" id="Shape" fill="#16C98D"></path>
        <path d="M149.5,371.8 C97.8,358.4 54.3,323 31.1,275.2 C28,269.1 25.3,262.8 24.9,261.3 L24.3,258.5 L124.7,258.5 C180,258.5 225.4,258.8 225.8,259.1 C226.1,259.4 225.5,261.1 224.5,262.8 C212.8,283.1 183.2,334.7 173.4,351.7 C166.6,363.6 160.5,373.6 160,373.8 C159.4,374.1 154.7,373.1 149.5,371.8 L149.5,371.8 Z" id="Shape" fill="#16C98D"></path>
        <path d="M319.9,283.3 C305.4,258.2 276.5,208.1 272.5,201 C271.6,199.4 262.8,184.1 253.1,167.2 C243.4,150.3 235.6,136.1 235.9,135.7 C236.1,135.3 238.7,135.1 241.7,135.2 C244.6,135.3 274.3,135.4 307.6,135.5 L368.3,135.5 L370.9,145.3 C375.5,161.8 376.6,170.3 377.2,190.1 C377.6,205.1 377.4,211.4 376,220.1 C371.6,248.9 362.4,272.9 346.8,296.5 C335.4,313.6 338.3,315.1 319.9,283.3 L319.9,283.3 Z" id="Shape" fill="#16C98D"></path>
        <path d="M21.4,251.8 C20.8,250.2 19.2,244.9 18,239.8 C8.1,200.5 11.6,157.5 27.6,121.5 C34.7,105.6 51.1,79.5 53.9,79.5 C54.5,79.5 62.9,93.3 72.5,110.1 C82.1,127 91.1,142.6 92.4,144.9 C93.7,147.1 95.7,150.6 96.8,152.5 C97.8,154.4 107.8,171.8 119,191 C130.1,210.3 142.7,232 146.9,239.2 C151.1,246.5 154.5,252.9 154.5,253.5 C154.5,254.2 132.9,254.5 88.5,254.5 L22.5,254.5 L21.4,251.8 L21.4,251.8 Z" id="Shape" fill="#16C98D"></path>
        <path d="M109.1,165.2 C73.3,103.2 61,81.7 59.1,78.3 L57,74.6 L65,66.5 C103.3,27.8 154.4,8.6 209,12.5 C216.6,13.1 223.3,13.9 223.8,14.4 C224.3,14.9 218.9,25.2 211.5,38.1 C204.2,50.7 187.1,80.4 173.5,104 C159.9,127.7 144.6,154.2 139.5,163 C134.4,171.8 128.9,181.4 127.3,184.3 C125.7,187.1 124,189.5 123.7,189.5 C123.3,189.5 116.7,178.5 109.1,165.2 L109.1,165.2 Z" id="Shape" fill="#16C98D"></path>
        <path d="M165.7,126.3 C205.2,57.4 230,15.5 231,15.5 C233.9,15.5 251.6,20.6 260.5,24 C283.2,32.7 303.5,45.7 321.9,63.5 C331.8,73 340.4,83.4 348.5,95.4 C353.2,102.5 364,123.4 365,127.8 L365.7,130.5 L264.5,130.5 L163.3,130.5 L165.7,126.3 L165.7,126.3 Z" id="Shape" fill="#16C98D"></path>
    </g>
</svg>